<?xml version="1.0" standalone="no"?>
<!DOCTYPE svg PUBLIC "-//W3C//DTD SVG 20010904//EN"
 "http://www.w3.org/TR/2001/REC-SVG-20010904/DTD/svg10.dtd">
<svg version="1.0" xmlns="http://www.w3.org/2000/svg"
 width="800.000000pt" height="800.000000pt" viewBox="0 0 800.000000 800.000000"
 preserveAspectRatio="xMidYMid meet">
<metadata>
Created by potrace 1.14, written by Peter Selinger 2001-2017
</metadata>
<g transform="translate(0.000000,800.000000) scale(0.100000,-0.100000)"
fill="#000000" stroke="none">
<path d="M1683 6932 c-16 -11 -29 -40 -71 -167 -22 -66 -52 -147 -67 -180 -23
-52 -28 -58 -37 -41 -6 11 -8 47 -4 90 15 177 17 271 6 286 -18 25 -34 -9 -59
-122 -38 -176 -71 -301 -83 -315 -19 -23 -78 -14 -149 22 -83 42 -129 46 -129
12 0 -17 14 -34 47 -57 79 -57 113 -91 170 -169 31 -42 70 -91 87 -109 34 -37
122 -85 173 -96 28 -6 49 -32 160 -194 71 -103 151 -220 178 -261 94 -141 203
-240 335 -306 141 -70 148 -78 292 -313 141 -230 242 -373 334 -474 57 -61
113 -167 255 -480 46 -102 95 -246 87 -254 -2 -2 -27 12 -55 31 -100 67 -284
133 -533 190 -179 42 -243 64 -338 116 -64 35 -82 41 -118 36 -59 -6 -89 -28
-118 -85 -35 -70 -76 -189 -76 -222 0 -15 20 -82 46 -147 25 -65 59 -154 76
-198 56 -148 170 -342 245 -419 21 -21 83 -75 138 -119 136 -109 263 -239 368
-375 104 -135 207 -286 207 -304 0 -7 -20 -26 -45 -42 -51 -32 -95 -104 -95
-156 0 -39 50 -95 135 -150 36 -23 65 -46 65 -50 0 -27 -215 -43 -275 -20 -61
23 -109 67 -175 160 -37 52 -88 114 -113 138 -43 39 -51 42 -100 42 -39 0 -68
-7 -101 -25 -51 -27 -119 -76 -113 -81 2 -2 34 8 73 21 133 47 185 30 267 -90
62 -91 136 -166 200 -201 47 -26 61 -29 147 -29 52 0 115 4 140 8 l45 9 -60
-59 c-33 -32 -100 -94 -149 -138 -108 -98 -184 -193 -233 -292 -33 -67 -38
-86 -41 -168 -10 -225 103 -314 227 -180 60 65 53 89 -8 32 -52 -49 -94 -66
-120 -50 -9 5 -26 29 -38 52 -19 37 -22 56 -19 135 4 104 24 158 102 262 85
114 400 410 427 401 7 -2 19 -18 27 -36 12 -26 18 -31 37 -26 23 5 23 5 9 -23
-13 -25 -13 -35 1 -83 19 -67 27 -76 49 -58 16 13 17 12 10 -6 -17 -44 -17
-74 -1 -128 11 -37 22 -57 32 -57 10 0 13 -5 8 -17 -16 -38 -16 -51 -3 -84 9
-21 12 -48 8 -71 -4 -21 -6 -86 -6 -146 1 -100 3 -112 27 -148 19 -29 48 -51
99 -78 67 -36 76 -38 158 -37 97 1 144 13 185 47 16 13 32 24 36 24 4 0 20
-14 37 -31 92 -98 243 -90 382 21 119 96 149 190 138 443 -4 117 -3 156 5 151
7 -4 40 -28 74 -54 101 -76 167 -104 256 -108 137 -7 251 42 265 113 7 40 -9
96 -36 120 -27 24 -34 14 -15 -21 25 -49 20 -90 -17 -117 -47 -35 -95 -48
-177 -48 -88 0 -146 24 -267 113 l-85 63 6 82 c3 46 12 106 19 135 8 29 17 71
21 93 4 21 13 51 20 66 14 26 15 26 157 32 132 5 155 9 298 52 164 48 256 61
331 44 67 -15 142 -53 188 -94 44 -40 53 -32 21 20 -47 76 -145 115 -291 115
-104 0 -163 -11 -301 -56 -70 -23 -290 -48 -304 -35 -2 2 21 18 51 35 149 84
179 141 95 184 -50 25 -49 22 -31 79 10 31 11 52 3 83 l-10 41 91 96 c120 125
194 195 295 281 77 65 124 99 429 315 226 159 331 279 478 547 31 58 80 136
109 175 45 61 51 75 49 115 -1 48 -43 175 -75 227 -48 79 -177 75 -386 -12
-35 -14 -118 -37 -185 -51 -260 -54 -435 -134 -649 -299 -27 -20 -48 -32 -48
-25 0 7 22 53 49 103 26 51 83 160 126 242 128 246 121 238 450 575 208 214
308 330 359 416 31 54 48 69 133 124 308 196 380 253 604 477 l172 172 43 -6
c61 -8 81 -1 164 63 87 66 172 109 247 124 42 9 53 15 53 31 0 24 -31 37 -108
45 -128 15 -155 44 -154 170 1 76 6 103 46 219 45 130 61 216 41 224 -15 7
-47 -55 -116 -224 -59 -144 -77 -180 -86 -172 -2 2 8 71 23 153 29 167 37 324
16 331 -19 7 -39 -50 -92 -262 -72 -285 -76 -287 -84 -67 -6 174 -19 279 -36
296 -16 16 -43 -5 -53 -45 -5 -19 -7 -118 -5 -221 3 -104 2 -188 -2 -188 -16
0 -62 102 -125 283 -18 51 -41 61 -51 23 -6 -27 18 -168 46 -266 13 -46 19
-107 22 -210 l3 -146 -125 -61 c-165 -81 -339 -179 -478 -269 -79 -51 -141
-82 -206 -104 -105 -35 -124 -51 -225 -192 -53 -75 -72 -94 -134 -129 -236
-137 -524 -375 -692 -573 -33 -39 -54 -52 -120 -76 -44 -17 -84 -30 -88 -30
-5 0 -5 19 -1 43 10 52 6 209 -7 302 -23 170 -78 259 -197 317 -66 33 -67 33
-217 33 -133 0 -156 -3 -206 -23 -111 -45 -187 -141 -224 -282 -14 -52 -16
-92 -12 -198 5 -122 4 -133 -11 -127 -9 4 -43 13 -75 19 -33 8 -64 21 -72 32
-8 10 -45 61 -82 113 -121 169 -241 293 -418 435 -40 32 -73 71 -99 114 -46
79 -99 150 -124 168 -9 6 -50 22 -91 34 -85 25 -109 39 -270 158 -65 48 -159
116 -209 152 -193 137 -260 186 -292 213 -32 27 -32 29 -26 90 14 133 24 161
87 243 33 44 71 103 86 132 23 47 24 55 11 68 -17 17 -18 16 -147 -119 -102
-107 -108 -86 -22 85 61 122 80 183 62 201 -17 17 -44 -15 -122 -144 -59 -98
-109 -166 -109 -148 0 2 16 66 35 143 44 174 53 241 33 249 -8 3 -19 2 -25 -1z
m1914 -4516 c79 -28 95 -32 211 -52 91 -15 162 -34 162 -42 0 -5 -57 -78 -87
-112 -13 -14 -24 -32 -24 -40 -5 -62 8 -246 21 -290 5 -19 8 -36 5 -38 -3 -3
2 -10 11 -16 11 -8 13 -20 9 -39 -4 -15 -11 -27 -15 -27 -10 0 -65 87 -75 119
-4 12 -8 72 -10 132 -4 122 -10 139 -85 237 -32 42 -62 68 -105 90 -87 46
-143 102 -101 102 8 0 45 -11 83 -24z"/>
</g>
</svg>
